<?xml version="1.0" encoding="UTF-8" standalone="no"?>
<svg width="11px" height="6px" viewBox="0 0 11 6" version="1.1" xmlns="http://www.w3.org/2000/svg" xmlns:xlink="http://www.w3.org/1999/xlink" xmlns:sketch="http://www.bohemiancoding.com/sketch/ns">
    <!-- Generator: Sketch 3.4.1 (15681) - http://www.bohemiancoding.com/sketch -->
    <title>Bird Left</title>
    <desc>Created with Sketch.</desc>
    <defs></defs>
    <g id="Page-1" stroke="none" stroke-width="1" fill="none" fill-rule="evenodd" sketch:type="MSPage">
        <g id="Mobile-Portrait" sketch:type="MSArtboardGroup" transform="translate(-113.000000, -899.000000)">
            <g id="back-to-top-+-Bird-Left-+-Bird-Right" sketch:type="MSLayerGroup" transform="translate(113.000000, 893.000000)">
                <g id="Bird-Left" transform="translate(5.500000, 9.000000) scale(-1, 1) translate(-5.500000, -9.000000) translate(0.000000, 6.000000)" sketch:type="MSShapeGroup">
                    <path d="M4.75,6 C7.09721019,6 9,4.77895841 9,3.27272727 C9,1.76649614 6.39224769,1.47094046 4.75000001,1.47094046 C3.10775234,1.47094046 0.318295971,5.23244528 0.318295971,5.23244528 C0.318295971,5.23244528 2.40278981,6 4.75,6 Z" id="Oval-23" fill="#A1D6B8"></path>
                    <path d="M2.84801482,3.37604209 C4.04952188,3.8019257 5.20969834,3.52213691 5.43934147,2.75111633 C5.66898459,1.98009575 4.37917036,1.35564754 3.53852464,1.05767407 C2.69787892,0.759700592 1.10432126,1.21453438 1.10432126,1.21453438 C1.10432126,1.21453438 1.64650775,2.95015847 2.84801482,3.37604209 L2.84801482,3.37604209 Z" id="Oval-23" fill="#82AC94"></path>
                    <path d="M8.09287126,2.88736482 C6.83645268,2.74330492 5.88089573,1.97292011 5.9585751,1.16666219 C6.03625446,0.360404274 7.44737887,0.362249404 8.32644394,0.463042273 C9.20550902,0.563835141 10.4917153,1.68642826 10.4917153,1.68642826 C10.4917153,1.68642826 9.34928985,3.03142473 8.09287126,2.88736482 L8.09287126,2.88736482 Z" id="Oval-23" fill="#A1D6B8"></path>
                </g>
            </g>
        </g>
    </g>
</svg>