<?xml version="1.0" encoding="UTF-8" standalone="no"?>
<svg width="22px" height="14px" viewBox="0 0 22 14" version="1.1" xmlns="http://www.w3.org/2000/svg" xmlns:xlink="http://www.w3.org/1999/xlink" xmlns:sketch="http://www.bohemiancoding.com/sketch/ns">
    <!-- Generator: Sketch 3.4.2 (15857) - http://www.bohemiancoding.com/sketch -->
    <title>envelope</title>
    <desc>Created with Sketch.</desc>
    <defs></defs>
    <g id="Page-1" stroke="none" stroke-width="1" fill="none" fill-rule="evenodd" sketch:type="MSPage">
        <g id="Assets" sketch:type="MSArtboardGroup" transform="translate(-149.000000, -199.000000)" fill="#FFFFFF">
            <g id="envelope" sketch:type="MSLayerGroup" transform="translate(149.000000, 199.000000)">
                <path d="M13.0760462,7.66138904 L20.996677,14 L1.07853085,14 L8.9319483,7.66753666 C9.96678193,8.46312572 10.755633,9 11,9 C11.2449959,9 12.037282,8.46035881 13.0760462,7.66138904 Z" id="Triangle-19" sketch:type="MSShapeGroup"></path>
                <path d="M11,0 C11.7921314,-4.17814519e-17 21.062851,8 21.062851,8 L1.04725069,8 C1.04725069,8 10.2078686,4.09122849e-17 11,0 Z" id="Triangle-19" sketch:type="MSShapeGroup" transform="translate(11.055051, 4.000000) scale(1, -1) translate(-11.055051, -4.000000) "></path>
                <polygon id="Triangle-19" sketch:type="MSShapeGroup" transform="translate(4.000000, 7.035110) scale(1, -1) rotate(90.000000) translate(-4.000000, -7.035110) " points="4.0351097 3.0351097 10.550961 11.0351097 -2.55096102 11.0351097 "></polygon>
                <polygon id="Triangle-19" sketch:type="MSShapeGroup" transform="translate(18.000000, 7.074329) scale(-1, -1) rotate(90.000000) translate(-18.000000, -7.074329) " points="18.0743286 3.0743286 24.5307574 11.0743286 11.4692426 11.0743286 "></polygon>
            </g>
        </g>
    </g>
</svg>