<?xml version="1.0" encoding="UTF-8" standalone="no"?>
<svg width="30px" height="30px" viewBox="0 0 30 30" version="1.1" xmlns="http://www.w3.org/2000/svg" xmlns:xlink="http://www.w3.org/1999/xlink" xmlns:sketch="http://www.bohemiancoding.com/sketch/ns">
    <!-- Generator: Sketch 3.4.2 (15857) - http://www.bohemiancoding.com/sketch -->
    <title>instagram</title>
    <desc>Created with Sketch.</desc>
    <defs></defs>
    <g id="Page-1" stroke="none" stroke-width="1" fill="none" fill-rule="evenodd" sketch:type="MSPage">
        <g id="Assets" sketch:type="MSArtboardGroup" transform="translate(-84.000000, -205.000000)" fill="#FFFFFF">
            <path d="M91.252035,218 L88,218 L88,228.99724 C88,230.106457 88.8914705,231 89.991155,231 L108.008845,231 C109.110326,231 110,230.103334 110,228.99724 L110,218 L106.747965,218 C106.912494,218.63924 107,219.309401 107,220 C107,224.418278 103.418278,228 99,228 C94.581722,228 91,224.418278 91,220 C91,219.309401 91.087506,218.63924 91.252035,218 Z M84,208.999275 C84,206.790536 85.7867947,205 87.9992748,205 L110.000725,205 C112.209464,205 114,206.786795 114,208.999275 L114,231.000725 C114,233.209464 112.213205,235 110.000725,235 L87.9992748,235 C85.7905363,235 84,233.213205 84,231.000725 L84,208.999275 Z M104,209.997913 C104,208.894496 104.898261,208 105.997913,208 L108.002087,208 C109.105504,208 110,208.898261 110,209.997913 L110,212.002087 C110,213.105504 109.101739,214 108.002087,214 L105.997913,214 C104.894496,214 104,213.101739 104,212.002087 L104,209.997913 Z M99,225 C101.761424,225 104,222.761424 104,220 C104,217.238576 101.761424,215 99,215 C96.2385763,215 94,217.238576 94,220 C94,222.761424 96.2385763,225 99,225 Z" id="instagram" sketch:type="MSShapeGroup"></path>
        </g>
    </g>
</svg>