<?xml version="1.0" encoding="UTF-8" standalone="no"?>
<svg width="80px" height="80px" viewBox="0 0 80 80" version="1.1" xmlns="http://www.w3.org/2000/svg" xmlns:xlink="http://www.w3.org/1999/xlink" xmlns:sketch="http://www.bohemiancoding.com/sketch/ns">
    <!-- Generator: Sketch 3.4.2 (15857) - http://www.bohemiancoding.com/sketch -->
    <title>lady-ring</title>
    <desc>Created with Sketch.</desc>
    <defs></defs>
    <g id="Page-1" stroke="none" stroke-width="1" fill="none" fill-rule="evenodd" sketch:type="MSPage">
        <g id="Artboard-6" sketch:type="MSArtboardGroup" transform="translate(-64.000000, -18.000000)" stroke-width="0.5">
            <g id="lady-ring" sketch:type="MSLayerGroup" transform="translate(78.000000, 32.000000)" stroke="#979797">
                <circle id="Oval-25" sketch:type="MSShapeGroup" cx="26" cy="26" r="26"></circle>
            </g>
            <g id="pink-jewel" sketch:type="MSLayerGroup" transform="translate(98.000000, 20.000000)" stroke="#FFAEAE">
                <polygon id="Triangle-1" sketch:type="MSShapeGroup" transform="translate(6.500000, 7.500000) scale(1, -1) translate(-6.500000, -7.500000) " points="6.5 3 13 12 0 12 "></polygon>
                <path d="M2.09676456,0 L11.1189647,0 L13,2.96344352 L2.27373675e-13,2.96344352 L2.09676456,0 Z" id="Rectangle-1" sketch:type="MSShapeGroup"></path>
                <path d="M5.5,0.5 L4.5,2.5" id="Line" stroke-linecap="square" sketch:type="MSShapeGroup"></path>
                <path d="M8.5,0.5 L7.5,2.5" id="Line" stroke-linecap="square" sketch:type="MSShapeGroup" transform="translate(8.000000, 1.500000) scale(-1, 1) translate(-8.000000, -1.500000) "></path>
                <path d="M9,3 L7.5,10.5" id="Line" stroke-linecap="square" sketch:type="MSShapeGroup" transform="translate(8.000000, 7.000000) scale(-1, -1) translate(-8.000000, -7.000000) "></path>
                <path d="M6,3 L4.5,10.5" id="Line" stroke-linecap="square" sketch:type="MSShapeGroup" transform="translate(5.000000, 7.000000) scale(1, -1) translate(-5.000000, -7.000000) "></path>
            </g>
        </g>
    </g>
</svg>