<?xml version="1.0" encoding="UTF-8" standalone="no"?>
<svg width="27px" height="27px" viewBox="0 0 27 27" version="1.1" xmlns="http://www.w3.org/2000/svg" xmlns:xlink="http://www.w3.org/1999/xlink" xmlns:sketch="http://www.bohemiancoding.com/sketch/ns">
    <!-- Generator: Sketch 3.4.2 (15857) - http://www.bohemiancoding.com/sketch -->
    <title>Phone</title>
    <desc>Created with Sketch.</desc>
    <defs></defs>
    <g id="Page-1" stroke="none" stroke-width="1" fill="none" fill-rule="evenodd" sketch:type="MSPage">
        <g id="Assets" sketch:type="MSArtboardGroup" transform="translate(-127.000000, -318.000000)">
            <g id="Phone" sketch:type="MSLayerGroup" transform="translate(127.000000, 317.000000)">
                <polygon id="Triangle-15" fill="#FFFFFF" sketch:type="MSShapeGroup" transform="translate(6.525851, 12.307988) rotate(58.000000) translate(-6.525851, -12.307988) " points="6.66862348 9.61839531 8.5258508 14.9975812 4.5258508 14.9975812 "></polygon>
                <path d="M1.95668975,1.11397335 L8.19397355,2.35823766 L8.66416753,10.0558365 C8.73153579,11.1587299 7.89809299,12.0528016 6.78797011,12.0528016 L1.54378796,12.0528016 L1.95668975,1.11397335 Z" id="Rectangle-9" fill="#FFFFFF" sketch:type="MSShapeGroup" transform="translate(5.105884, 6.583387) rotate(-14.000000) translate(-5.105884, -6.583387) "></path>
                <path d="M1,2 C1,15.8071187 12.1928813,27 26,27" id="Oval-58" stroke="#FFFFFF" stroke-width="2" sketch:type="MSShapeGroup"></path>
                <path d="M18.2538406,17.2415738 L24.4911244,18.4858381 L24.9613184,26.1834369 C25.0286867,27.2863303 24.1952439,28.180402 23.085121,28.180402 L17.8409388,28.180402 L18.2538406,17.2415738 Z" id="Rectangle-9" fill="#FFFFFF" sketch:type="MSShapeGroup" transform="translate(21.403035, 22.710988) scale(1, -1) rotate(77.000000) translate(-21.403035, -22.710988) "></path>
                <polygon id="Triangle-15" fill="#FFFFFF" sketch:type="MSShapeGroup" transform="translate(15.281047, 21.489186) rotate(22.000000) translate(-15.281047, -21.489186) " points="15.7976174 18.6244158 17.7976174 24.3539562 12.7644762 23.6181535 "></polygon>
            </g>
        </g>
    </g>
</svg>