<?xml version="1.0" encoding="UTF-8" standalone="no"?>
<svg width="94px" height="58px" viewBox="0 0 94 58" version="1.1" xmlns="http://www.w3.org/2000/svg" xmlns:xlink="http://www.w3.org/1999/xlink" xmlns:sketch="http://www.bohemiancoding.com/sketch/ns">
    <!-- Generator: Sketch 3.4.2 (15857) - http://www.bohemiancoding.com/sketch -->
    <title>Group + T + B</title>
    <desc>Created with Sketch.</desc>
    <defs></defs>
    <g id="Page-1" stroke="none" stroke-width="1" fill="none" fill-rule="evenodd" sketch:type="MSPage">
        <g id="Mobile-Portrait" sketch:type="MSArtboardGroup" transform="translate(-111.000000, -939.000000)">
            <g id="Group-+-T-+-B" sketch:type="MSLayerGroup" transform="translate(95.000000, 905.000000)">
                <g id="Group" transform="translate(60.500000, 60.531850) rotate(-43.000000) translate(-60.500000, -60.531850) translate(20.000000, 15.531850)" stroke-width="0.5" sketch:type="MSShapeGroup">
                    <circle id="Oval-25" stroke="#979797" cx="26" cy="38" r="26"></circle>
                    <polygon id="Triangle-1" stroke="#FFAEAE" transform="translate(26.500000, 7.500000) scale(1, -1) translate(-26.500000, -7.500000) " points="26.5 3 33 12 20 12 "></polygon>
                    <path d="M22.0967646,-1.70530257e-13 L31.1189647,-1.70530257e-13 L33,2.96344352 L20,2.96344352 L22.0967646,-1.70530257e-13 Z" id="Rectangle-1" stroke="#FFAEAE"></path>
                    <path d="M25.5,0.5 L24.5,2.5" id="Line" stroke="#FFAEAE" stroke-linecap="square"></path>
                    <path d="M28.5,0.5 L27.5,2.5" id="Line" stroke="#FFAEAE" stroke-linecap="square" transform="translate(28.000000, 1.500000) scale(-1, 1) translate(-28.000000, -1.500000) "></path>
                    <path d="M29,3 L27.5,10.5" id="Line" stroke="#FFAEAE" stroke-linecap="square" transform="translate(28.000000, 7.000000) scale(-1, -1) translate(-28.000000, -7.000000) "></path>
                    <path d="M26,3 L24.5,10.5" id="Line" stroke="#FFAEAE" stroke-linecap="square" transform="translate(25.000000, 7.000000) scale(1, -1) translate(-25.000000, -7.000000) "></path>
                    <circle id="Oval-25" stroke="#979797" cx="54.6891061" cy="63.7650037" r="26"></circle>
                </g>
                <path d="M38.8462489,56.832 C38.9582494,55.423993 40.9102299,54.72 44.7022489,54.72 C45.9022549,54.72 47.3222407,54.8079991 48.9622489,54.984 C50.6022571,55.1600009 51.7582455,55.248 52.4302489,55.248 C51.5822446,56.0000038 50.2142583,56.376 48.3262489,56.376 C48.150248,56.376 47.8702508,56.372 47.4862489,56.364 C47.102247,56.356 46.8142498,56.352 46.6222489,56.352 C45.3102423,59.6320164 44.0542549,63.4479782 42.8542489,67.8 C42.8062486,67.9760009 42.7222495,68.2759979 42.6022489,68.7 C42.4822483,69.1240021 42.3982491,69.4159992 42.3502489,69.576 L42.1822489,70.32 C42.1022485,70.6560017 42.0382491,70.9039992 41.9902489,71.064 L41.8702489,71.688 C41.8062486,71.9600014 41.762249,72.1839991 41.7382489,72.36 C41.7142488,72.5360009 41.694249,72.7319989 41.6782489,72.948 C41.6622488,73.1640011 41.6542489,73.367999 41.6542489,73.56 C41.6542489,73.8000012 41.6622488,73.9759994 41.6782489,74.088 C40.4142426,74.088 39.7822489,73.5200057 39.7822489,72.384 C39.7822489,71.7599969 40.0782459,70.5920086 40.6702489,68.88 C42.4462578,63.7279742 44.0782414,59.552016 45.5662489,56.352 C42.7022346,56.4000002 40.462257,56.5599986 38.8462489,56.832 L38.8462489,56.832 Z" id="T" fill="#FFFFFF" sketch:type="MSShapeGroup"></path>
                <path d="M77.6462489,72.168 C77.6462489,72.1199998 77.6862485,72.096 77.7662489,72.096 C77.798249,72.096 77.8942481,72.1159998 78.0542489,72.156 C78.2142497,72.1960002 78.4622472,72.2359998 78.7982489,72.276 C79.1342506,72.3160002 79.5422465,72.336 80.0222489,72.336 C82.7102623,72.336 84.9742397,71.7640057 86.8142489,70.62 C88.6542581,69.4759943 89.5742489,68.1520075 89.5742489,66.648 C89.5742489,64.6319899 87.558269,63.624 83.5262489,63.624 C83.3022478,63.624 82.9902509,63.628 82.5902489,63.636 C82.1902469,63.644 81.9022498,63.648 81.7262489,63.648 L79.5662489,71.376 C79.1662469,71.376 78.8302502,71.2640011 78.5582489,71.04 C78.2862475,70.8159989 78.1502489,70.5440016 78.1502489,70.224 C78.1502489,70.0799993 78.2622478,69.6240038 78.4862489,68.856 C78.7422502,67.9919957 79.0942466,66.8880067 79.5422489,65.544 C79.9902511,64.1999933 80.6142449,62.4800105 81.4142489,60.384 C82.2142529,58.2879895 82.9342457,56.6240062 83.5742489,55.392 C82.9822459,55.5040006 82.4342514,55.6679989 81.9302489,55.884 C81.4262464,56.1000011 81.0382502,56.2879992 80.7662489,56.448 C80.4942475,56.6080008 80.3262492,56.688 80.2622489,56.688 C80.1342482,56.688 79.9742498,56.6080008 79.7822489,56.448 C79.5902479,56.2879992 79.4942489,56.1520006 79.4942489,56.04 C80.1982524,55.7519986 80.7582468,55.5320008 81.1742489,55.38 C81.590251,55.2279992 82.1662452,55.0800007 82.9022489,54.936 C83.6382526,54.7919993 84.398245,54.72 85.1822489,54.72 C85.8222521,54.72 86.4222461,54.7679995 86.9822489,54.864 C87.5422517,54.9600005 88.1262458,55.1279988 88.7342489,55.368 C89.3422519,55.6080012 89.8262471,55.9999973 90.1862489,56.544 C90.5462507,57.0880027 90.7262489,57.7519961 90.7262489,58.536 C90.7262489,61.0480126 88.8942672,62.607997 85.2302489,63.216 C88.8782671,63.4400011 90.7022489,64.7279882 90.7022489,67.08 C90.7022489,68.1840055 90.3342526,69.1999954 89.5982489,70.128 C88.8622452,71.0560046 87.9422544,71.7959972 86.8382489,72.348 C85.7342434,72.9000028 84.6062546,73.3279985 83.4542489,73.632 C82.3022431,73.9360015 81.2542536,74.088 80.3102489,74.088 C78.53424,74.088 77.6462489,73.4480064 77.6462489,72.168 L77.6462489,72.168 Z M81.8702489,63.096 C82.8142536,63.0639998 83.6982448,62.9600009 84.5222489,62.784 C85.346253,62.6079991 86.1302452,62.3440018 86.8742489,61.992 C87.6182526,61.6399982 88.2062467,61.1520031 88.6382489,60.528 C89.070251,59.9039969 89.2862489,59.1760042 89.2862489,58.344 C89.2862489,56.2639896 87.9342624,55.224 85.2302489,55.224 C85.0222478,55.224 84.8702494,55.2319999 84.7742489,55.248 C83.8302442,57.0880092 82.8622538,59.703983 81.8702489,63.096 L81.8702489,63.096 Z" id="B" fill="#FFFFFF" sketch:type="MSShapeGroup"></path>
            </g>
        </g>
    </g>
</svg>