<?xml version="1.0" encoding="UTF-8" standalone="no"?>
<svg width="68px" height="75px" viewBox="0 0 68 75" version="1.1" xmlns="http://www.w3.org/2000/svg" xmlns:xlink="http://www.w3.org/1999/xlink" xmlns:sketch="http://www.bohemiancoding.com/sketch/ns">
    <!-- Generator: Sketch 3.4.1 (15681) - http://www.bohemiancoding.com/sketch -->
    <title>Fill 24</title>
    <desc>Created with Sketch.</desc>
    <defs></defs>
    <g id="Page-1" stroke="none" stroke-width="1" fill="none" fill-rule="evenodd" sketch:type="MSPage">
        <g id="Mobile-Portrait" sketch:type="MSArtboardGroup" transform="translate(-4.000000, -3.000000)" fill="#FFAEAE">
            <g id="293-+-days-+-Fill-24" sketch:type="MSLayerGroup" transform="translate(4.000000, 3.000000)">
                <path d="M5.08014339,22.2190203 C-2.5399408,34.7411738 2.488688,48.1359849 13.7428364,56.4069463 C25.6418353,65.1503962 39.3235144,60.9498278 51.0320715,54.4603414 C60.0503363,49.4582298 73.5102351,38.683802 70.5945464,26.6534223 C67.6704205,14.5917041 54.5335496,9.88610327 43.418014,8.61689279 C31.5467376,7.25969336 18.6207992,7.47303643 9.20959743,15.7644884 C1.58107594,22.4853978 -0.176292412,33.4755793 1.43161526,43.0241885 C5.23442539,65.5963676 30.8898338,77.8834822 50.6306973,66.0833202 C66.3662555,56.6757344 72.6484255,30.9419797 61.0531693,16.1055962 C45.7238066,-3.50629714 16.9803476,5.45290655 4.20266454,22.8554335 C-9.237949,41.1655726 -4.13941117,69.425695 21.7871961,71.6230081 C43.5976079,73.470776 63.6072595,53.2128268 65.875687,32.2762779 C68.631067,6.82698058 36.4909934,-1.35960782 18.2182196,9.00862442 C-2.17352106,20.5749528 -7.34317324,50.5454358 13.756095,63.8173034 C34.8758538,77.1048402 64.2075129,58.151056 65.945596,34.8906345 C67.5064959,13.9902454 38.2230499,-2.16717764 20.3082585,6.29422556 C6.46868135,12.8307198 3.56625131,31.8978049 6.12034153,45.2998479 C9.22165071,61.5729825 21.7293403,70.9347657 38.0639466,68.0781382 C58.7292967,64.4609486 81.6449944,28.3963268 57.9651187,14.2891668 C42.6622733,5.17085978 8.7105916,15.241376 7.81864881,35.4113362 C7.80056889,35.8115052 8.41167023,35.8054785 8.43818745,35.4113362 C9.54226798,18.7163369 32.0891352,11.8037803 45.9166591,12.1183709 C55.4194658,12.3329193 63.1407975,17.0722693 66.0974673,26.3099038 C69.5374737,37.0626357 62.881652,48.7519076 55.8859277,56.4057409 C46.2228124,66.9788789 28.925149,72.6487423 16.7862898,62.974779 C8.98661173,56.7589021 6.20953581,45.8326029 6.08056571,36.310511 C5.9515956,26.58954 9.19392816,16.240593 16.6633463,9.71374135 C26.8712699,0.790697498 41.4183747,5.64455372 51.6335302,11.7507458 C89.009549,34.0866807 39.7164514,86.7968834 8.65996782,58.9899644 C-4.12253658,47.5453741 0.105754361,28.3179804 10.0955136,16.7528574 C21.48948,3.56054145 40.9422701,1.49340378 55.357994,10.8491604 C68.4297772,19.3310542 66.4132633,36.1031946 59.8924383,47.9973722 C53.1642969,60.2724334 40.339606,70.0970627 26.1360198,70.9914162 C9.68690735,72.0255877 -3.69223445,58.9984017 -2.65806295,42.754195 C-1.67813121,27.3525126 10.4462641,13.3249043 24.4316859,7.90333856 C37.9856003,2.64810809 55.0554567,6.84264984 62.4597871,19.7384551 C68.7166453,30.6334157 66.4843776,45.0057478 60.2383675,55.318535 C48.7588227,74.2674979 21.3725632,74.3410229 8.29836939,57.2181321 C-4.77823506,40.0892146 1.55576405,14.5278217 23.3613545,9.52088886 C33.6355712,7.16085646 46.0215226,8.74706822 55.7690109,12.3064021 C63.0190594,14.9533026 69.1083769,20.4315187 70.1546017,28.3553456 C71.0549818,35.1847346 66.096262,41.4548513 61.6088255,45.9193865 C52.7918505,54.6893537 38.0747945,62.3419818 25.3875111,60.605104 C7.5775832,58.1691359 -4.02852099,38.1040392 5.27902253,22.3371424 C5.3549582,22.2081723 5.15728439,22.0924608 5.08014339,22.2190203" id="Fill-24" sketch:type="MSShapeGroup" transform="translate(34.000000, 37.870230) rotate(-270.000000) translate(-34.000000, -37.870230) "></path>
            </g>
        </g>
    </g>
</svg>