<?xml version="1.0" encoding="UTF-8" standalone="no"?>
<svg width="49px" height="12px" viewBox="0 0 49 12" version="1.1" xmlns="http://www.w3.org/2000/svg" xmlns:xlink="http://www.w3.org/1999/xlink" xmlns:sketch="http://www.bohemiancoding.com/sketch/ns">
    <!-- Generator: Sketch 3.4.1 (15681) - http://www.bohemiancoding.com/sketch -->
    <title>Group</title>
    <desc>Created with Sketch.</desc>
    <defs></defs>
    <g id="Page-1" stroke="none" stroke-width="1" fill="none" fill-rule="evenodd" sketch:type="MSPage">
        <g id="Mobile-Portrait" sketch:type="MSArtboardGroup" transform="translate(-97.000000, -54.000000)">
            <g id="Group" sketch:type="MSLayerGroup" transform="translate(120.500000, 60.500000) scale(-1, 1) translate(-120.500000, -60.500000) translate(96.000000, 54.000000)">
                <path d="M22,-16 L22,27.2392731" id="Line" stroke="#6ABF7E" stroke-linecap="square" sketch:type="MSShapeGroup" transform="translate(22.000000, 5.500000) rotate(-270.000000) translate(-22.000000, -5.500000) "></path>
                <path d="M42.6698949,9.00651995 C42.6698949,9.00651995 42.753233,9.99356752 44.4794822,9.99356752 C46.2057313,9.99356752 48.9211962,9.00651995 48.9211962,9.00651995 C48.9211962,9.00651995 46.2057313,8.01947238 44.4794822,8.01947238 C42.753233,8.01947238 42.6698949,9.00651995 42.6698949,9.00651995 Z" id="Oval-1" fill="#6ABF7E" sketch:type="MSShapeGroup" transform="translate(45.795546, 9.006520) rotate(-311.000000) translate(-45.795546, -9.006520) "></path>
                <path d="M39.5437041,3.09027565 C39.5437041,3.09027565 39.6270421,4.07732322 41.3532913,4.07732322 C43.0795405,4.07732322 45.7950054,3.09027565 45.7950054,3.09027565 C45.7950054,3.09027565 43.0795405,2.10322808 41.3532913,2.10322808 C39.6270421,2.10322808 39.5437041,3.09027565 39.5437041,3.09027565 Z" id="Oval-1" fill="#6ABF7E" sketch:type="MSShapeGroup" transform="translate(42.669355, 3.090276) scale(1, -1) rotate(-307.000000) translate(-42.669355, -3.090276) "></path>
                <path d="M32.6698949,9.00651995 C32.6698949,9.00651995 32.753233,9.99356752 34.4794822,9.99356752 C36.2057313,9.99356752 38.9211962,9.00651995 38.9211962,9.00651995 C38.9211962,9.00651995 36.2057313,8.01947238 34.4794822,8.01947238 C32.753233,8.01947238 32.6698949,9.00651995 32.6698949,9.00651995 Z" id="Oval-1" fill="#6ABF7E" sketch:type="MSShapeGroup" transform="translate(35.795546, 9.006520) rotate(-311.000000) translate(-35.795546, -9.006520) "></path>
                <path d="M29.5437041,3.09027565 C29.5437041,3.09027565 29.6270421,4.07732322 31.3532913,4.07732322 C33.0795405,4.07732322 35.7950054,3.09027565 35.7950054,3.09027565 C35.7950054,3.09027565 33.0795405,2.10322808 31.3532913,2.10322808 C29.6270421,2.10322808 29.5437041,3.09027565 29.5437041,3.09027565 Z" id="Oval-1" fill="#6ABF7E" sketch:type="MSShapeGroup" transform="translate(32.669355, 3.090276) scale(1, -1) rotate(-307.000000) translate(-32.669355, -3.090276) "></path>
                <path d="M22.6698949,9.00651995 C22.6698949,9.00651995 22.753233,9.99356752 24.4794822,9.99356752 C26.2057313,9.99356752 28.9211962,9.00651995 28.9211962,9.00651995 C28.9211962,9.00651995 26.2057313,8.01947238 24.4794822,8.01947238 C22.753233,8.01947238 22.6698949,9.00651995 22.6698949,9.00651995 Z" id="Oval-1" fill="#6ABF7E" sketch:type="MSShapeGroup" transform="translate(25.795546, 9.006520) rotate(-311.000000) translate(-25.795546, -9.006520) "></path>
                <path d="M19.5437041,3.09027565 C19.5437041,3.09027565 19.6270421,4.07732322 21.3532913,4.07732322 C23.0795405,4.07732322 25.7950054,3.09027565 25.7950054,3.09027565 C25.7950054,3.09027565 23.0795405,2.10322808 21.3532913,2.10322808 C19.6270421,2.10322808 19.5437041,3.09027565 19.5437041,3.09027565 Z" id="Oval-1" fill="#6ABF7E" sketch:type="MSShapeGroup" transform="translate(22.669355, 3.090276) scale(1, -1) rotate(-307.000000) translate(-22.669355, -3.090276) "></path>
                <path d="M12.6698949,9.00651995 C12.6698949,9.00651995 12.753233,9.99356752 14.4794822,9.99356752 C16.2057313,9.99356752 18.9211962,9.00651995 18.9211962,9.00651995 C18.9211962,9.00651995 16.2057313,8.01947238 14.4794822,8.01947238 C12.753233,8.01947238 12.6698949,9.00651995 12.6698949,9.00651995 Z" id="Oval-1" fill="#6ABF7E" sketch:type="MSShapeGroup" transform="translate(15.795546, 9.006520) rotate(-311.000000) translate(-15.795546, -9.006520) "></path>
                <path d="M9.54370411,3.09027565 C9.54370411,3.09027565 9.62704214,4.07732322 11.3532913,4.07732322 C13.0795405,4.07732322 15.7950054,3.09027565 15.7950054,3.09027565 C15.7950054,3.09027565 13.0795405,2.10322808 11.3532913,2.10322808 C9.62704214,2.10322808 9.54370411,3.09027565 9.54370411,3.09027565 Z" id="Oval-1" fill="#6ABF7E" sketch:type="MSShapeGroup" transform="translate(12.669355, 3.090276) scale(1, -1) rotate(-307.000000) translate(-12.669355, -3.090276) "></path>
                <path d="M2.66989494,9.00651995 C2.66989494,9.00651995 2.75323297,9.99356752 4.47948215,9.99356752 C6.20573133,9.99356752 8.92119622,9.00651995 8.92119622,9.00651995 C8.92119622,9.00651995 6.20573133,8.01947238 4.47948215,8.01947238 C2.75323297,8.01947238 2.66989494,9.00651995 2.66989494,9.00651995 Z" id="Oval-1" fill="#6ABF7E" sketch:type="MSShapeGroup" transform="translate(5.795546, 9.006520) rotate(-311.000000) translate(-5.795546, -9.006520) "></path>
                <path d="M-0.456295887,3.09027565 C-0.456295887,3.09027565 -0.372957857,4.07732322 1.35329132,4.07732322 C3.0795405,4.07732322 5.79500539,3.09027565 5.79500539,3.09027565 C5.79500539,3.09027565 3.0795405,2.10322808 1.35329132,2.10322808 C-0.372957857,2.10322808 -0.456295887,3.09027565 -0.456295887,3.09027565 Z" id="Oval-1" fill="#6ABF7E" sketch:type="MSShapeGroup" transform="translate(2.669355, 3.090276) scale(1, -1) rotate(-307.000000) translate(-2.669355, -3.090276) "></path>
            </g>
        </g>
    </g>
</svg>