<?xml version="1.0" encoding="UTF-8" standalone="no"?>
<svg width="25px" height="20px" viewBox="0 0 25 20" version="1.1" xmlns="http://www.w3.org/2000/svg" xmlns:xlink="http://www.w3.org/1999/xlink" xmlns:sketch="http://www.bohemiancoding.com/sketch/ns">
    <!-- Generator: Sketch 3.4.2 (15857) - http://www.bohemiancoding.com/sketch -->
    <title>twitter</title>
    <desc>Created with Sketch.</desc>
    <defs></defs>
    <g id="Page-1" stroke="none" stroke-width="1" fill="none" fill-rule="evenodd" sketch:type="MSPage">
        <g id="Assets" sketch:type="MSArtboardGroup" transform="translate(-35.000000, -182.000000)" fill="#FFFFFF">
            <path d="M35.4069046,199.627881 C36.3400618,200.299402 36.3682854,200.529162 37.5720358,201.00696 C38.6049006,201.416929 39.836172,201.653083 40.5405959,201.793967 C42.2188705,202.129622 44.3556616,202.000214 45.9505153,201.793967 C47.545369,201.587721 47.7548195,201.449331 49.0850474,200.858196 C50.4152753,200.267061 50.2722784,200.221488 51.4931655,199.330889 C52.7140526,198.44029 52.705511,198.294778 53.6478758,197.2873 C54.5902406,196.279822 54.8168235,196.020776 55.3781369,195.177483 C55.9394503,194.334191 55.7470221,194.592392 56.2465139,193.383221 C56.7460057,192.17405 56.8251039,192.150484 57.1314014,190.933177 C57.4376989,189.71587 57.4091823,189.221229 57.486284,188.456049 C57.5633856,187.690868 56.723245,188.261987 57.5358154,186.919647 C58.3483858,185.577307 59.9243617,184.816946 59.9094287,184.453092 C59.8944956,184.089239 57.6467485,185.654163 57.46124,185.102566 C57.2757315,184.55097 59.5340931,182.899228 59.2740535,182.563848 C59.0140139,182.228468 57.1509757,183.676626 56.358006,183.679697 C55.5650364,183.682768 55.6317915,182.920691 55.0111962,182.580359 C54.3906008,182.240027 54.4382556,182.293503 53.5712598,182.151457 C52.7042639,182.009412 52.6054636,181.947879 51.7886845,182.052394 C50.9719055,182.15691 50.85215,182.271952 50.219447,182.580359 C49.586744,182.888766 49.521246,182.945391 49.0850472,183.370265 C48.6488484,183.795138 48.6599773,183.958895 48.4045928,184.348093 C48.1492084,184.737291 48.0749131,184.822265 47.9241193,185.139483 C47.7733255,185.456701 47.8214963,185.433723 47.7137499,185.801386 C47.6060034,186.169049 47.5348962,186.336912 47.513769,186.53972 C47.4926418,186.742528 47.5609487,186.678294 47.5942808,186.948215 C47.6276128,187.218136 47.5931368,187.198272 47.6311975,187.490649 C47.6692581,187.783027 48.1135248,187.878347 47.740649,188.072598 C47.3677731,188.266848 47.022013,188.139168 46.4624781,188.099497 C45.9029433,188.059825 45.9018898,188.008815 45.3570181,187.903597 C44.8121464,187.798379 44.8198774,187.853855 44.2721497,187.676532 C43.7244221,187.499208 43.7327649,187.440962 43.2288359,187.214609 C42.7249068,186.988257 42.8409527,187.062707 42.2244793,186.756768 C41.6080059,186.450829 41.6569118,186.478472 41.013649,186.115271 C40.3703861,185.752069 40.3053665,185.759662 39.7514321,185.360427 C39.1974977,184.961191 39.2471426,184.973388 38.738542,184.475539 C38.2299415,183.97769 38.0877041,183.743263 37.7857575,183.436307 C37.483811,183.12935 37.4433437,182.700537 37.1398082,182.850277 C36.8362727,183.000017 36.9232157,183.358681 36.7583976,183.943123 C36.5935795,184.527564 36.5346,184.637372 36.4983112,185.125013 C36.4620224,185.612654 36.5514845,185.66641 36.5973741,186.106923 C36.6432636,186.547436 36.6020254,186.664772 36.6923557,186.987729 C36.782686,187.310686 36.8292156,187.307287 37.0162579,187.604553 C37.2033002,187.901819 37.2306758,187.923958 37.4412636,188.177968 C37.6518515,188.431977 37.6552608,188.440998 37.8970641,188.666975 C38.1388675,188.892951 38.2518443,188.905607 38.4190921,189.091795 C38.5863399,189.277983 38.6736787,189.411398 38.6604419,189.516801 C38.6472051,189.622204 38.544678,189.613072 38.3491545,189.648699 C38.1536309,189.684326 38.176134,189.674915 37.936578,189.648699 C37.697022,189.622483 37.6633085,189.627143 37.464267,189.551862 C37.2652254,189.476582 37.2836951,189.448861 37.1054524,189.334355 C36.9272098,189.219849 36.8933261,189.177041 36.7567581,189.097347 C36.6201901,189.017653 36.5618507,189.005962 36.4643969,188.960269 C36.4643969,188.960269 36.3325174,189.259189 36.2665776,189.408649 C36.2665776,189.408649 36.3980735,189.727826 36.4427617,189.898013 C36.4874499,190.0682 36.4290066,189.976425 36.4863587,190.245646 C36.5437109,190.514867 36.55485,190.593481 36.6307023,190.78024 C36.7065547,190.967 36.7110608,190.885373 36.847626,191.135139 C36.9841912,191.384905 36.9350136,191.351791 37.1016969,191.641648 C37.2683801,191.931505 37.2069056,191.860261 37.4656584,192.209879 C37.7244111,192.559497 37.7462144,192.615368 38.0249083,192.889061 C38.3036022,193.162753 38.3839376,193.213352 38.6604419,193.383221 C38.9369462,193.55309 39.0056375,193.545934 39.2737091,193.656254 C39.5417807,193.766574 39.5963938,193.771641 39.8200596,193.860442 C40.0437254,193.949242 40.9175765,193.902576 40.2611731,194.048301 C39.6047696,194.194025 38.4335555,194.13011 38.1927649,194.221709 C37.9519743,194.313308 38.2197549,194.44054 38.3491545,194.775652 C38.478554,195.110763 38.4020514,195.042222 38.6604419,195.432872 C38.9188324,195.823523 38.9575536,195.871607 39.2737091,196.17345 C39.5898646,196.475293 39.6411983,196.4841 39.9997545,196.711554 C40.3583106,196.939008 40.3760025,196.962265 40.7630283,197.118215 C41.150054,197.274165 41.0921504,197.217604 41.5854115,197.350487 C42.0786726,197.483371 42.4572017,197.453925 42.5758965,197.606599 C42.6945912,197.759274 42.4570139,197.85284 42.1620512,198.092208 C41.8670885,198.331576 42.0422657,198.223747 41.478705,198.496991 C40.9151443,198.770234 40.8907348,198.78163 40.3106483,198.989865 C39.7305618,199.1981 39.4915358,199.240219 39.1170376,199.344764 C38.7425393,199.44931 39.7363482,199.445467 38.3599683,199.53442 C36.9835884,199.623372 35.6722571,199.570439 35.579884,199.573363 C35.4875109,199.576286 34.4737475,198.956361 35.4069046,199.627881 Z" id="twitter" sketch:type="MSShapeGroup"></path>
        </g>
    </g>
</svg>